<?xml version="1.0" encoding="UTF-8" standalone="no"?>
<svg
   height="43mm"
   width="43mm"
   viewBox="0 0 43 43"
   version="1.1"
   id="svg80"
   sodipodi:docname="monglmm.svg"
   inkscape:version="1.4.1 (93de688d07, 2025-03-30)"
   inkscape:export-filename="monglmm.png"
   inkscape:export-xdpi="37.804653"
   inkscape:export-ydpi="37.804653"
   xmlns:inkscape="http://www.inkscape.org/namespaces/inkscape"
   xmlns:sodipodi="http://sodipodi.sourceforge.net/DTD/sodipodi-0.dtd"
   xmlns="http://www.w3.org/2000/svg"
   xmlns:svg="http://www.w3.org/2000/svg">
  <defs
     id="defs80" />
  <sodipodi:namedview
     id="namedview80"
     pagecolor="#505050"
     bordercolor="#eeeeee"
     borderopacity="1"
     inkscape:showpageshadow="0"
     inkscape:pageopacity="0"
     inkscape:pagecheckerboard="0"
     inkscape:deskcolor="#505050"
     inkscape:document-units="mm"
     inkscape:zoom="2.8475781"
     inkscape:cx="119.39971"
     inkscape:cy="138.88996"
     inkscape:window-width="1871"
     inkscape:window-height="1062"
     inkscape:window-x="49"
     inkscape:window-y="0"
     inkscape:window-maximized="1"
     inkscape:current-layer="svg80" />
  <g
     id="g4"
     transform="translate(19.326365,-68.106852)">
    <path
       d="M -18.237307,98.481453 23.158487,102.3184 H -18.947851"
       style="fill:#262626;stroke:#262626;stroke-width:0"
       id="path1" />
    <path
       d="m 23.158487,102.3184 -41.395794,-3.836947 h 40.52735"
       style="fill:#262626;stroke:#262626;stroke-width:0"
       id="path2" />
    <path
       d="m -18.237307,98.481453 -0.710544,-6.110687 v 9.947634"
       style="fill:#070707;stroke:#070707;stroke-width:0"
       id="path3" />
    <path
       d="m -18.947851,92.370766 0.710544,6.110687 V 88.90686"
       style="fill:#070707;stroke:#070707;stroke-width:0"
       id="path4" />
  </g>
  <g
     id="g22"
     transform="translate(19.326365,-68.106852)">
    <path
       d="m -18.237307,97.523994 3.500089,2.804866 -4.210633,0.99477"
       style="fill:#4830ce;stroke:#4830ce;stroke-width:0"
       id="path5" />
    <path
       d="m -14.737218,100.32886 -3.500089,-2.804866 4.052735,-0.957466"
       style="fill:#4830ce;stroke:#4830ce;stroke-width:0"
       id="path6" />
    <path
       d="m -14.184572,96.566528 3.657987,3.264962 -4.210633,0.49737"
       style="fill:#4b32d6;stroke:#4b32d6;stroke-width:0"
       id="path7" />
    <path
       d="m -10.526585,99.83149 -3.657987,-3.264962 4.052734,-0.478721"
       style="fill:#4b32d6;stroke:#4b32d6;stroke-width:0"
       id="path8" />
    <path
       d="m -10.131838,96.087807 3.815888,2.251541 -4.210635,1.492142"
       style="fill:#452ec3;stroke:#452ec3;stroke-width:0"
       id="path9" />
    <path
       d="m -6.31595,98.339348 -3.815888,-2.251541 4.052736,-1.436188"
       style="fill:#452ec3;stroke:#452ec3;stroke-width:0"
       id="path10" />
    <path
       d="m -6.079102,94.651619 3.973785,5.677241 -4.210633,-1.989512"
       style="fill:#402bb7;stroke:#402bb7;stroke-width:0"
       id="path11" />
    <path
       d="m -2.105317,100.32886 -3.973785,-5.677241 4.052735,1.914909"
       style="fill:#402bb7;stroke:#402bb7;stroke-width:0"
       id="path12" />
    <path
       d="m -2.026367,96.566528 4.131685,2.767571 -4.210635,0.994761"
       style="fill:#4830ce;stroke:#4830ce;stroke-width:0"
       id="path13" />
    <path
       d="M 2.105318,99.334099 -2.026367,96.566528 2.026368,95.60907"
       style="fill:#4830ce;stroke:#4830ce;stroke-width:0"
       id="path14" />
    <path
       d="m 2.026368,95.60907 4.289583,2.730278 -4.210633,0.994751"
       style="fill:#4830ce;stroke:#4830ce;stroke-width:0"
       id="path15" />
    <path
       d="M 6.315951,98.339348 2.026368,95.60907 6.079103,94.651619"
       style="fill:#4830ce;stroke:#4830ce;stroke-width:0"
       id="path16" />
    <path
       d="m 6.079103,94.651619 4.447482,4.68248 -4.210634,-0.994751"
       style="fill:#4830ce;stroke:#4830ce;stroke-width:0"
       id="path17" />
    <path
       d="m 10.526585,99.334099 -4.447482,-4.68248 4.052735,0.957451"
       style="fill:#4830ce;stroke:#4830ce;stroke-width:0"
       id="path18" />
    <path
       d="m 10.131838,95.60907 4.60538,1.735512 -4.210633,1.989517"
       style="fill:#402bb7;stroke:#402bb7;stroke-width:0"
       id="path19" />
    <path
       d="m 14.737218,97.344582 -4.60538,-1.735512 4.052734,-1.91491"
       style="fill:#402bb7;stroke:#402bb7;stroke-width:0"
       id="path20" />
    <path
       d="m 14.184572,93.69416 4.763279,5.639939 -4.210633,-1.989517"
       style="fill:#402bb7;stroke:#402bb7;stroke-width:0"
       id="path21" />
    <path
       d="m 18.947851,99.334099 -4.763279,-5.639939 4.052735,1.91491"
       style="fill:#402bb7;stroke:#402bb7;stroke-width:0"
       id="path22" />
  </g>
  <g
     id="g40"
     transform="translate(19.326365,-68.106852)">
    <path
       d="m -18.237307,93.69416 3.500089,2.655655 -4.210633,0.994767"
       style="fill:#9e9130;stroke:#9e9130;stroke-width:0"
       id="path23" />
    <path
       d="m -14.737218,96.349815 -3.500089,-2.655655 4.052735,-0.957466"
       style="fill:#9e9130;stroke:#9e9130;stroke-width:0"
       id="path24" />
    <path
       d="m -14.184572,92.736694 3.657987,6.597405 -4.210633,-2.984284"
       style="fill:#786f25;stroke:#786f25;stroke-width:0"
       id="path25" />
    <path
       d="m -10.526585,99.334099 -3.657987,-6.597405 4.052734,2.872376"
       style="fill:#786f25;stroke:#786f25;stroke-width:0"
       id="path26" />
    <path
       d="m -10.131838,95.60907 3.815888,1.735512 -4.210635,1.989517"
       style="fill:#8c812b;stroke:#8c812b;stroke-width:0"
       id="path27" />
    <path
       d="m -6.31595,97.344582 -3.815888,-1.735512 4.052736,-1.91491"
       style="fill:#8c812b;stroke:#8c812b;stroke-width:0"
       id="path28" />
    <path
       d="m -6.079102,93.69416 3.973785,2.655655 -4.210633,0.994767"
       style="fill:#9e9130;stroke:#9e9130;stroke-width:0"
       id="path29" />
    <path
       d="M -2.105317,96.349815 -6.079102,93.69416 -2.026367,92.736694"
       style="fill:#9e9130;stroke:#9e9130;stroke-width:0"
       id="path30" />
    <path
       d="m -2.026367,92.736694 4.131685,4.607888 -4.210635,-0.994767"
       style="fill:#9e9130;stroke:#9e9130;stroke-width:0"
       id="path31" />
    <path
       d="M 2.105318,97.344582 -2.026367,92.736694 2.026368,93.69416"
       style="fill:#9e9130;stroke:#9e9130;stroke-width:0"
       id="path32" />
    <path
       d="m 2.026368,93.69416 4.289583,1.660897 -4.210633,1.989525"
       style="fill:#8c812b;stroke:#8c812b;stroke-width:0"
       id="path33" />
    <path
       d="M 6.315951,95.355057 2.026368,93.69416 6.079103,91.779243"
       style="fill:#8c812b;stroke:#8c812b;stroke-width:0"
       id="path34" />
    <path
       d="m 6.079103,91.779243 4.447482,4.570572 -4.210634,-0.994758"
       style="fill:#9e9130;stroke:#9e9130;stroke-width:0"
       id="path35" />
    <path
       d="m 10.526585,96.349815 -4.447482,-4.570572 4.052735,0.957451"
       style="fill:#9e9130;stroke:#9e9130;stroke-width:0"
       id="path36" />
    <path
       d="m 10.131838,92.736694 4.60538,1.623604 -4.210633,1.989517"
       style="fill:#8c812b;stroke:#8c812b;stroke-width:0"
       id="path37" />
    <path
       d="m 14.737218,94.360298 -4.60538,-1.623604 4.052734,-1.914909"
       style="fill:#8c812b;stroke:#8c812b;stroke-width:0"
       id="path38" />
    <path
       d="m 14.184572,90.821785 4.763279,2.543755 -4.210633,0.994758"
       style="fill:#9e9130;stroke:#9e9130;stroke-width:0"
       id="path39" />
    <path
       d="m 18.947851,93.36554 -4.763279,-2.543755 4.052735,-0.957459"
       style="fill:#9e9130;stroke:#9e9130;stroke-width:0"
       id="path40" />
  </g>
  <g
     id="g44"
     transform="translate(19.326365,-68.106852)">
    <path
       d="m -18.237307,84.803474 41.395794,3.304032 h -42.106338"
       style="fill:#262626;stroke:#262626;stroke-width:0"
       id="path41" />
    <path
       d="m 23.158487,88.107506 -41.395794,-3.304032 h 40.52735"
       style="fill:#262626;stroke:#262626;stroke-width:0"
       id="path42" />
    <path
       d="m -18.237307,84.803474 -0.710544,-6.643592 v 9.947624"
       style="fill:#070707;stroke:#070707;stroke-width:0"
       id="path43" />
    <path
       d="m -18.947851,78.159882 0.710544,6.643592 v -9.574592"
       style="fill:#070707;stroke:#070707;stroke-width:0"
       id="path44" />
  </g>
  <g
     id="g62"
     transform="translate(19.326365,-68.106852)">
    <path
       d="m -18.237307,82.888557 3.500089,4.224183 -4.210633,-0.994759"
       style="fill:#ce4830;stroke:#ce4830;stroke-width:0"
       id="path45" />
    <path
       d="m -14.737218,87.11274 -3.500089,-4.224183 4.052735,0.957451"
       style="fill:#ce4830;stroke:#ce4830;stroke-width:0"
       id="path46" />
    <path
       d="m -14.184572,83.846008 3.657987,0.282448 -4.210633,2.984284"
       style="fill:#9d3725;stroke:#9d3725;stroke-width:0"
       id="path47" />
    <path
       d="m -10.526585,84.128456 -3.657987,-0.282448 4.052734,-2.872368"
       style="fill:#9d3725;stroke:#9d3725;stroke-width:0"
       id="path48" />
    <path
       d="m -10.131838,80.97364 3.815888,5.144341 -4.210635,-1.989525"
       style="fill:#b7402b;stroke:#b7402b;stroke-width:0"
       id="path49" />
    <path
       d="m -6.31595,86.117981 -3.815888,-5.144341 4.052736,1.914917"
       style="fill:#b7402b;stroke:#b7402b;stroke-width:0"
       id="path50" />
    <path
       d="m -6.079102,82.888557 3.973785,2.732048 -4.210633,0.497376"
       style="fill:#d64b32;stroke:#d64b32;stroke-width:0"
       id="path51" />
    <path
       d="m -2.105317,85.620605 -3.973785,-2.732048 4.052735,-0.478729"
       style="fill:#d64b32;stroke:#d64b32;stroke-width:0"
       id="path52" />
    <path
       d="m -2.026367,82.409828 4.131685,1.718628 -4.210635,1.492149"
       style="fill:#c3452e;stroke:#c3452e;stroke-width:0"
       id="path53" />
    <path
       d="M 2.105318,84.128456 -2.026367,82.409828 2.026368,80.97364"
       style="fill:#c3452e;stroke:#c3452e;stroke-width:0"
       id="path54" />
    <path
       d="M 2.026368,80.97364 6.315951,85.123215 2.105318,84.128456"
       style="fill:#ce4830;stroke:#ce4830;stroke-width:0"
       id="path55" />
    <path
       d="M 6.315951,85.123215 2.026368,80.97364 6.079103,81.931091"
       style="fill:#ce4830;stroke:#ce4830;stroke-width:0"
       id="path56" />
    <path
       d="m 6.079103,81.931091 4.447482,1.202599 -4.210634,1.989525"
       style="fill:#b7402b;stroke:#b7402b;stroke-width:0"
       id="path57" />
    <path
       d="M 10.526585,83.13369 6.079103,81.931091 10.131838,80.016174"
       style="fill:#b7402b;stroke:#b7402b;stroke-width:0"
       id="path58" />
    <path
       d="m 10.131838,80.016174 4.60538,5.107041 -4.210633,-1.989525"
       style="fill:#b7402b;stroke:#b7402b;stroke-width:0"
       id="path59" />
    <path
       d="m 14.737218,85.123215 -4.60538,-5.107041 4.052734,1.914917"
       style="fill:#b7402b;stroke:#b7402b;stroke-width:0"
       id="path60" />
    <path
       d="m 14.184572,81.931091 4.763279,2.197365 -4.210633,0.994759"
       style="fill:#ce4830;stroke:#ce4830;stroke-width:0"
       id="path61" />
    <path
       d="M 18.947851,84.128456 14.184572,81.931091 18.237307,80.97364"
       style="fill:#ce4830;stroke:#ce4830;stroke-width:0"
       id="path62" />
  </g>
  <g
     id="g80"
     transform="translate(19.326365,-68.106852)">
    <path
       d="m -18.237307,79.058716 3.500089,4.074974 -4.210633,-0.994759"
       style="fill:#48ce30;stroke:#48ce30;stroke-width:0"
       id="path63" />
    <path
       d="m -14.737218,83.13369 -3.500089,-4.074974 4.052735,0.957458"
       style="fill:#48ce30;stroke:#48ce30;stroke-width:0"
       id="path64" />
    <path
       d="m -14.184572,80.016174 3.657987,4.112282 -4.210633,-0.994766"
       style="fill:#48ce30;stroke:#48ce30;stroke-width:0"
       id="path65" />
    <path
       d="m -10.526585,84.128456 -3.657987,-4.112282 4.052734,0.957466"
       style="fill:#48ce30;stroke:#48ce30;stroke-width:0"
       id="path66" />
    <path
       d="m -10.131838,80.97364 3.815888,4.149575 -4.210635,-0.994759"
       style="fill:#48ce30;stroke:#48ce30;stroke-width:0"
       id="path67" />
    <path
       d="m -6.31595,85.123215 -3.815888,-4.149575 4.052736,0.957451"
       style="fill:#48ce30;stroke:#48ce30;stroke-width:0"
       id="path68" />
    <path
       d="m -6.079102,81.931091 3.973785,1.202599 -4.210633,1.989525"
       style="fill:#40b72b;stroke:#40b72b;stroke-width:0"
       id="path69" />
    <path
       d="m -2.105317,83.13369 -3.973785,-1.202599 4.052735,-1.914917"
       style="fill:#40b72b;stroke:#40b72b;stroke-width:0"
       id="path70" />
    <path
       d="m -2.026367,80.016174 4.131685,2.122757 -4.210635,0.994759"
       style="fill:#48ce30;stroke:#48ce30;stroke-width:0"
       id="path71" />
    <path
       d="M 2.105318,82.138931 -2.026367,80.016174 2.026368,79.058716"
       style="fill:#48ce30;stroke:#48ce30;stroke-width:0"
       id="path72" />
    <path
       d="M 2.026368,79.058716 6.315951,83.13369 2.105318,82.138931"
       style="fill:#48ce30;stroke:#48ce30;stroke-width:0"
       id="path73" />
    <path
       d="M 6.315951,83.13369 2.026368,79.058716 6.079103,80.016174"
       style="fill:#48ce30;stroke:#48ce30;stroke-width:0"
       id="path74" />
    <path
       d="m 6.079103,80.016174 4.447482,1.127991 -4.210634,1.989525"
       style="fill:#40b72b;stroke:#40b72b;stroke-width:0"
       id="path75" />
    <path
       d="M 10.526585,81.144165 6.079103,80.016174 10.131838,78.101257"
       style="fill:#40b72b;stroke:#40b72b;stroke-width:0"
       id="path76" />
    <path
       d="m 10.131838,78.101257 4.60538,1.053383 -4.210633,1.989525"
       style="fill:#40b72b;stroke:#40b72b;stroke-width:0"
       id="path77" />
    <path
       d="m 14.737218,79.15464 -4.60538,-1.053383 4.052734,-1.914917"
       style="fill:#40b72b;stroke:#40b72b;stroke-width:0"
       id="path78" />
    <path
       d="m 14.184572,76.18634 4.763279,3.963074 -4.210633,-0.994774"
       style="fill:#48ce30;stroke:#48ce30;stroke-width:0"
       id="path79" />
    <path
       d="m 18.947851,80.149414 -4.763279,-3.963074 4.052735,0.957466"
       style="fill:#48ce30;stroke:#48ce30;stroke-width:0"
       id="path80" />
  </g>
</svg>
